<?xml version="1.0" standalone="no"?>
<!DOCTYPE svg PUBLIC "-//W3C//DTD SVG 20010904//EN"
 "http://www.w3.org/TR/2001/REC-SVG-20010904/DTD/svg10.dtd">
<svg version="1.0" xmlns="http://www.w3.org/2000/svg"
 width="224.000000pt" height="224.000000pt" viewBox="0 0 224.000000 224.000000"
 preserveAspectRatio="xMidYMid meet">
<metadata>
Created by potrace 1.11, written by Peter Selinger 2001-2013
</metadata>
<g transform="translate(0.000000,224.000000) scale(0.100000,-0.100000)"
fill="#000000" stroke="none">
<path d="M1127 1795 c-41 -12 -101 -37 -132 -56 -69 -41 -171 -148 -203 -213
-13 -25 -26 -46 -28 -46 -3 0 -23 9 -46 21 -23 12 -67 24 -98 26 -172 16 -309
-112 -320 -298 0 -4 -12 -10 -28 -14 -69 -17 -181 -114 -220 -192 -44 -85 -58
-192 -36 -282 36 -158 166 -282 324 -311 34 -6 347 -9 815 -7 755 2 760 2 813
24 195 79 298 269 256 470 -18 85 -57 155 -121 213 -63 58 -120 87 -204 104
l-63 13 -4 44 c-10 146 -62 260 -167 365 -145 145 -341 196 -538 139z"/>
</g>
</svg>
